# xmcd
#
# Track frame offsets: 
#        150
#        42192
#        92220
#        114505
#        136562
#        171597
#        230132
#
# Disc length: 3334 seconds
#
# Revision: 1
# Processed by: cddbd v1.5.2PL0 Copyright (c) Steve Scherf et al.
# Submitted via: ExactAudioCopy v1.0b3
#
DISCID=5a0d0407
DTITLE=Friedrich Gulda - Tales of World Music [CD 2)
DYEAR=1900
DGENRE=Jazz
TTITLE0=J.S.Bach プレリュードとフーガ 変ホ短調  BWV853（平均律クラヴィーア曲集 第1巻より）
TTITLE1=ソロ 第2番（バシール）
TTITLE2=ソロ（ラーブル） Solo (G. Rabl)
TTITLE3=ソロ（アンダース） Solo (U.Anders))
TTITLE4=ソロ（グルダ） Solo (F.Gulda)
TTITLE5=パフォーマンス Performance（グルダ、ラーブル、アンダース）
TTITLE6=グッド・ナイト Goodnight（グルダ、ラーブル、アンダース）
EXTD=
EXTT0=
EXTT1=
EXTT2=
EXTT3=
EXTT4=
EXTT5=
EXTT6=
PLAYORDER=
